<mxfile host="app.diagrams.net" agent="Mozilla/5.0 (Windows NT 10.0; Win64; x64) AppleWebKit/537.36 (KHTML, like Gecko) Chrome/128.0.0.0 YaBrowser/24.10.0.0 Safari/537.36" version="24.8.8">
  <diagram name="Страница — 1" id="E0XV3InVeQMchUmnytgf">
    <mxGraphModel dx="660" dy="377" grid="1" gridSize="10" guides="1" tooltips="1" connect="1" arrows="1" fold="1" page="1" pageScale="1" pageWidth="827" pageHeight="1169" math="0" shadow="0">
      <root>
        <mxCell id="0" />
        <mxCell id="1" parent="0" />
        <mxCell id="zcApFVAF6S9XLR2TaPJg-1" value="" style="rounded=0;whiteSpace=wrap;html=1;labelBackgroundColor=none;fillColor=none;" vertex="1" parent="1">
          <mxGeometry x="80" y="40" width="480" height="40" as="geometry" />
        </mxCell>
        <mxCell id="zcApFVAF6S9XLR2TaPJg-2" value="" style="rounded=0;whiteSpace=wrap;html=1;fillColor=none;" vertex="1" parent="1">
          <mxGeometry x="80" y="80" width="480" height="40" as="geometry" />
        </mxCell>
        <mxCell id="zcApFVAF6S9XLR2TaPJg-3" value="" style="rounded=0;whiteSpace=wrap;html=1;fillColor=none;" vertex="1" parent="1">
          <mxGeometry x="80" y="120" width="480" height="40" as="geometry" />
        </mxCell>
        <mxCell id="zcApFVAF6S9XLR2TaPJg-4" value="Время в тиках" style="text;html=1;align=center;verticalAlign=middle;whiteSpace=wrap;rounded=0;" vertex="1" parent="1">
          <mxGeometry x="260" y="170" width="100" height="30" as="geometry" />
        </mxCell>
        <mxCell id="zcApFVAF6S9XLR2TaPJg-5" value="Чтение из файла" style="text;html=1;align=center;verticalAlign=middle;whiteSpace=wrap;rounded=0;fontSize=8;" vertex="1" parent="1">
          <mxGeometry x="10" y="45" width="60" height="30" as="geometry" />
        </mxCell>
        <mxCell id="zcApFVAF6S9XLR2TaPJg-6" value="Запись в файл" style="text;html=1;align=center;verticalAlign=middle;whiteSpace=wrap;rounded=0;fontSize=8;" vertex="1" parent="1">
          <mxGeometry x="10" y="125" width="60" height="30" as="geometry" />
        </mxCell>
        <mxCell id="zcApFVAF6S9XLR2TaPJg-7" value="Парсинг данных" style="text;html=1;align=center;verticalAlign=middle;whiteSpace=wrap;rounded=0;fontSize=8;" vertex="1" parent="1">
          <mxGeometry x="10" y="85" width="60" height="30" as="geometry" />
        </mxCell>
        <mxCell id="zcApFVAF6S9XLR2TaPJg-13" value="2648" style="text;html=1;align=center;verticalAlign=middle;whiteSpace=wrap;rounded=0;fontSize=6;" vertex="1" parent="1">
          <mxGeometry x="70" y="160" width="20" height="10" as="geometry" />
        </mxCell>
        <mxCell id="zcApFVAF6S9XLR2TaPJg-14" value="2652" style="text;html=1;align=center;verticalAlign=middle;whiteSpace=wrap;rounded=0;fontSize=6;" vertex="1" parent="1">
          <mxGeometry x="150" y="160" width="20" height="10" as="geometry" />
        </mxCell>
        <mxCell id="zcApFVAF6S9XLR2TaPJg-15" value="2656" style="text;html=1;align=center;verticalAlign=middle;whiteSpace=wrap;rounded=0;fontSize=6;" vertex="1" parent="1">
          <mxGeometry x="230" y="160" width="20" height="10" as="geometry" />
        </mxCell>
        <mxCell id="zcApFVAF6S9XLR2TaPJg-16" value="2660" style="text;html=1;align=center;verticalAlign=middle;whiteSpace=wrap;rounded=0;fontSize=6;" vertex="1" parent="1">
          <mxGeometry x="310" y="160" width="20" height="10" as="geometry" />
        </mxCell>
        <mxCell id="zcApFVAF6S9XLR2TaPJg-17" value="2664" style="text;html=1;align=center;verticalAlign=middle;whiteSpace=wrap;rounded=0;fontSize=6;" vertex="1" parent="1">
          <mxGeometry x="394" y="160" width="20" height="10" as="geometry" />
        </mxCell>
        <mxCell id="zcApFVAF6S9XLR2TaPJg-18" value="2668" style="text;html=1;align=center;verticalAlign=middle;whiteSpace=wrap;rounded=0;fontSize=6;rotation=0;" vertex="1" parent="1">
          <mxGeometry x="470" y="160" width="20" height="10" as="geometry" />
        </mxCell>
        <mxCell id="zcApFVAF6S9XLR2TaPJg-20" value="1" style="rounded=0;whiteSpace=wrap;html=1;fillColor=#33FFFF;" vertex="1" parent="1">
          <mxGeometry x="80" y="40" width="100" height="40" as="geometry" />
        </mxCell>
        <mxCell id="zcApFVAF6S9XLR2TaPJg-21" value="2" style="rounded=0;whiteSpace=wrap;html=1;fillColor=#33FFFF;" vertex="1" parent="1">
          <mxGeometry x="180" y="40" width="120" height="40" as="geometry" />
        </mxCell>
        <mxCell id="zcApFVAF6S9XLR2TaPJg-22" value="3" style="rounded=0;whiteSpace=wrap;html=1;fillColor=#33FFFF;" vertex="1" parent="1">
          <mxGeometry x="300" y="40" width="100" height="40" as="geometry" />
        </mxCell>
        <mxCell id="zcApFVAF6S9XLR2TaPJg-23" value="4" style="rounded=0;whiteSpace=wrap;html=1;fillColor=#33FFFF;" vertex="1" parent="1">
          <mxGeometry x="400" y="40" width="100" height="40" as="geometry" />
        </mxCell>
        <mxCell id="zcApFVAF6S9XLR2TaPJg-24" value="1" style="rounded=0;whiteSpace=wrap;html=1;fillColor=#33FFFF;" vertex="1" parent="1">
          <mxGeometry x="200" y="80" width="20" height="40" as="geometry" />
        </mxCell>
        <mxCell id="zcApFVAF6S9XLR2TaPJg-25" value="1" style="rounded=0;whiteSpace=wrap;html=1;fillColor=#33FFFF;" vertex="1" parent="1">
          <mxGeometry x="240" y="120" width="20" height="40" as="geometry" />
        </mxCell>
        <mxCell id="zcApFVAF6S9XLR2TaPJg-26" value="2672" style="text;html=1;align=center;verticalAlign=middle;whiteSpace=wrap;rounded=0;fontSize=6;rotation=0;" vertex="1" parent="1">
          <mxGeometry x="550" y="160" width="20" height="10" as="geometry" />
        </mxCell>
        <mxCell id="zcApFVAF6S9XLR2TaPJg-27" value="2650" style="text;html=1;align=center;verticalAlign=middle;whiteSpace=wrap;rounded=0;fontSize=6;" vertex="1" parent="1">
          <mxGeometry x="110" y="160" width="20" height="10" as="geometry" />
        </mxCell>
        <mxCell id="zcApFVAF6S9XLR2TaPJg-28" value="2654" style="text;html=1;align=center;verticalAlign=middle;whiteSpace=wrap;rounded=0;fontSize=6;" vertex="1" parent="1">
          <mxGeometry x="190" y="160" width="20" height="10" as="geometry" />
        </mxCell>
        <mxCell id="zcApFVAF6S9XLR2TaPJg-29" value="2658" style="text;html=1;align=center;verticalAlign=middle;whiteSpace=wrap;rounded=0;fontSize=6;" vertex="1" parent="1">
          <mxGeometry x="270" y="160" width="20" height="10" as="geometry" />
        </mxCell>
        <mxCell id="zcApFVAF6S9XLR2TaPJg-30" value="2662" style="text;html=1;align=center;verticalAlign=middle;whiteSpace=wrap;rounded=0;fontSize=6;" vertex="1" parent="1">
          <mxGeometry x="350" y="160" width="20" height="10" as="geometry" />
        </mxCell>
        <mxCell id="zcApFVAF6S9XLR2TaPJg-31" value="2666" style="text;html=1;align=center;verticalAlign=middle;whiteSpace=wrap;rounded=0;fontSize=6;" vertex="1" parent="1">
          <mxGeometry x="430" y="160" width="20" height="10" as="geometry" />
        </mxCell>
        <mxCell id="zcApFVAF6S9XLR2TaPJg-32" value="2670" style="text;html=1;align=center;verticalAlign=middle;whiteSpace=wrap;rounded=0;fontSize=6;" vertex="1" parent="1">
          <mxGeometry x="510" y="160" width="20" height="10" as="geometry" />
        </mxCell>
        <mxCell id="zcApFVAF6S9XLR2TaPJg-33" value="2" style="rounded=0;whiteSpace=wrap;html=1;fillColor=#33FFFF;" vertex="1" parent="1">
          <mxGeometry x="300" y="80" width="20" height="40" as="geometry" />
        </mxCell>
        <mxCell id="zcApFVAF6S9XLR2TaPJg-34" value="2" style="rounded=0;whiteSpace=wrap;html=1;fillColor=#33FFFF;" vertex="1" parent="1">
          <mxGeometry x="320" y="120" width="20" height="40" as="geometry" />
        </mxCell>
        <mxCell id="zcApFVAF6S9XLR2TaPJg-36" value="3" style="rounded=0;whiteSpace=wrap;html=1;fillColor=#33FFFF;" vertex="1" parent="1">
          <mxGeometry x="400" y="80" width="20" height="40" as="geometry" />
        </mxCell>
        <mxCell id="zcApFVAF6S9XLR2TaPJg-37" value="3" style="rounded=0;whiteSpace=wrap;html=1;fillColor=#33FFFF;" vertex="1" parent="1">
          <mxGeometry x="420" y="120" width="20" height="40" as="geometry" />
        </mxCell>
        <mxCell id="zcApFVAF6S9XLR2TaPJg-38" value="4" style="rounded=0;whiteSpace=wrap;html=1;fillColor=#33FFFF;" vertex="1" parent="1">
          <mxGeometry x="500" y="80" width="20" height="40" as="geometry" />
        </mxCell>
        <mxCell id="zcApFVAF6S9XLR2TaPJg-39" value="4" style="rounded=0;whiteSpace=wrap;html=1;fillColor=#33FFFF;" vertex="1" parent="1">
          <mxGeometry x="520" y="120" width="20" height="40" as="geometry" />
        </mxCell>
      </root>
    </mxGraphModel>
  </diagram>
</mxfile>
